<svg xmlns="http://www.w3.org/2000/svg" width="358.7" height="35" viewBox="0 0 358.7 35"><rect class="svg__rect" x="0" y="0" width="56.8" height="35" fill="#31C4F3"/><rect class="svg__rect" x="54.8" y="0" width="303.9" height="35" fill="#389AD5"/><path class="svg__text" d="M13.95 18.00L13.95 18.00L13.95 17.52Q13.95 16.28 14.39 15.32Q14.83 14.37 15.64 13.86Q16.44 13.35 17.49 13.35Q18.53 13.35 19.34 13.85Q20.14 14.35 20.58 15.29Q21.02 16.23 21.03 17.48L21.03 17.48L21.03 17.96Q21.03 19.21 20.59 20.16Q20.16 21.10 19.35 21.61Q18.55 22.12 17.50 22.12L17.50 22.12Q16.46 22.12 15.65 21.61Q14.84 21.10 14.40 20.17Q13.95 19.23 13.95 18.00ZM15.43 17.46L15.43 17.96Q15.43 19.36 15.98 20.13Q16.53 20.90 17.50 20.90L17.50 20.90Q18.48 20.90 19.01 20.15Q19.54 19.40 19.54 17.96L19.54 17.96L19.54 17.51Q19.54 16.09 19.01 15.34Q18.47 14.58 17.49 14.58L17.49 14.58Q16.53 14.58 15.98 15.33Q15.44 16.09 15.43 17.46L15.43 17.46ZM25.22 18.19L25.22 18.19L25.22 17.39Q25.22 16.19 25.65 15.27Q26.08 14.35 26.88 13.85Q27.68 13.35 28.73 13.35L28.73 13.35Q30.14 13.35 31.00 14.12Q31.86 14.89 32.00 16.29L32.00 16.29L30.52 16.29Q30.42 15.37 29.99 14.96Q29.56 14.55 28.73 14.55L28.73 14.55Q27.76 14.55 27.24 15.26Q26.72 15.96 26.71 17.33L26.71 17.33L26.71 18.09Q26.71 19.47 27.20 20.20Q27.70 20.92 28.65 20.92L28.65 20.92Q29.53 20.92 29.97 20.53Q30.41 20.14 30.52 19.22L30.52 19.22L32.00 19.22Q31.87 20.59 30.99 21.35Q30.11 22.12 28.65 22.12L28.65 22.12Q27.64 22.12 26.86 21.63Q26.08 21.15 25.66 20.26Q25.24 19.37 25.22 18.19ZM37.80 22L36.31 22L36.31 13.47L39.31 13.47Q40.79 13.47 41.59 14.13Q42.39 14.79 42.39 16.05L42.39 16.05Q42.39 16.90 41.98 17.48Q41.57 18.06 40.83 18.37L40.83 18.37L42.75 21.92L42.75 22L41.16 22L39.45 18.71L37.80 18.71L37.80 22ZM37.80 14.66L37.80 17.52L39.32 17.52Q40.07 17.52 40.49 17.15Q40.91 16.77 40.91 16.11L40.91 16.11Q40.91 15.43 40.52 15.05Q40.13 14.68 39.36 14.66L39.36 14.66L37.80 14.66Z" fill="#FFFFFF"/><path class="svg__text" d="M68.40 21.24L68.40 21.24L69.18 19.49Q69.74 19.86 70.49 20.09Q71.23 20.32 71.95 20.32L71.95 20.32Q73.32 20.32 73.32 19.64L73.32 19.64Q73.32 19.28 72.93 19.11Q72.54 18.93 71.68 18.74L71.68 18.74Q70.73 18.53 70.09 18.30Q69.46 18.06 69.00 17.55Q68.55 17.03 68.55 16.16L68.55 16.16Q68.55 15.39 68.97 14.77Q69.39 14.15 70.22 13.79Q71.06 13.43 72.26 13.43L72.26 13.43Q73.09 13.43 73.90 13.62Q74.70 13.80 75.32 14.17L75.32 14.17L74.58 15.93Q73.38 15.28 72.25 15.28L72.25 15.28Q71.54 15.28 71.22 15.49Q70.90 15.70 70.90 16.04L70.90 16.04Q70.90 16.37 71.28 16.54Q71.67 16.71 72.52 16.89L72.52 16.89Q73.48 17.10 74.11 17.33Q74.74 17.56 75.20 18.07Q75.66 18.58 75.66 19.46L75.66 19.46Q75.66 20.21 75.24 20.83Q74.82 21.44 73.98 21.80Q73.14 22.17 71.94 22.17L71.94 22.17Q70.92 22.17 69.96 21.92Q69.00 21.67 68.40 21.24ZM82.62 22L80.24 22L80.24 13.60L82.62 13.60L82.62 22ZM94.53 22L87.79 22L87.79 13.60L94.38 13.60L94.38 15.44L90.15 15.44L90.15 16.85L93.88 16.85L93.88 18.63L90.15 18.63L90.15 20.17L94.53 20.17L94.53 22ZM101.54 22L99.34 22L99.34 13.60L101.30 13.60L104.25 18.45L107.13 13.60L109.08 13.60L109.11 22L106.93 22L106.90 17.55L104.74 21.17L103.69 21.17L101.54 17.67L101.54 22ZM121.01 22L114.27 22L114.27 13.60L120.86 13.60L120.86 15.44L116.62 15.44L116.62 16.85L120.36 16.85L120.36 18.63L116.62 18.63L116.62 20.17L121.01 20.17L121.01 22ZM128.15 22L125.82 22L125.82 13.60L127.77 13.60L131.48 18.07L131.48 13.60L133.81 13.60L133.81 22L131.86 22L128.15 17.52L128.15 22ZM138.39 21.24L138.39 21.24L139.17 19.49Q139.73 19.86 140.47 20.09Q141.22 20.32 141.94 20.32L141.94 20.32Q143.30 20.32 143.31 19.64L143.31 19.64Q143.31 19.28 142.92 19.11Q142.53 18.93 141.66 18.74L141.66 18.74Q140.71 18.53 140.08 18.30Q139.44 18.06 138.99 17.55Q138.53 17.03 138.53 16.16L138.53 16.16Q138.53 15.39 138.95 14.77Q139.37 14.15 140.21 13.79Q141.04 13.43 142.25 13.43L142.25 13.43Q143.07 13.43 143.88 13.62Q144.69 13.80 145.30 14.17L145.30 14.17L144.57 15.93Q143.37 15.28 142.24 15.28L142.24 15.28Q141.53 15.28 141.20 15.49Q140.88 15.70 140.88 16.04L140.88 16.04Q140.88 16.37 141.27 16.54Q141.65 16.71 142.50 16.89L142.50 16.89Q143.46 17.10 144.09 17.33Q144.72 17.56 145.18 18.07Q145.65 18.58 145.65 19.46L145.65 19.46Q145.65 20.21 145.23 20.83Q144.81 21.44 143.97 21.80Q143.13 22.17 141.93 22.17L141.93 22.17Q140.91 22.17 139.94 21.92Q138.98 21.67 138.39 21.24ZM149.38 23.25L149.38 22L155.38 22L155.38 23.25L149.38 23.25ZM161.13 22L158.70 22L162.41 13.60L164.75 13.60L168.47 22L166.00 22L165.34 20.37L161.79 20.37L161.13 22ZM163.56 15.93L162.48 18.61L164.64 18.61L163.56 15.93ZM175.00 22L172.62 22L172.62 13.60L175.00 13.60L175.00 22ZM179.34 23.25L179.34 22L185.34 22L185.34 23.25L179.34 23.25ZM192.04 22L189.66 22L189.66 13.60L193.51 13.60Q194.65 13.60 195.49 13.98Q196.32 14.35 196.78 15.06Q197.24 15.76 197.24 16.71L197.24 16.71Q197.24 17.62 196.81 18.30Q196.38 18.98 195.59 19.36L195.59 19.36L197.40 22L194.86 22L193.34 19.77L192.04 19.77L192.04 22ZM192.04 15.47L192.04 17.93L193.36 17.93Q194.09 17.93 194.46 17.61Q194.84 17.29 194.84 16.71L194.84 16.71Q194.84 16.12 194.46 15.79Q194.09 15.47 193.36 15.47L193.36 15.47L192.04 15.47ZM203.44 22L201.02 22L204.73 13.60L207.07 13.60L210.78 22L208.32 22L207.66 20.37L204.11 20.37L203.44 22ZM205.88 15.93L204.80 18.61L206.96 18.61L205.88 15.93ZM218.91 22L214.94 22L214.94 13.60L218.91 13.60Q220.29 13.60 221.36 14.12Q222.43 14.63 223.02 15.58Q223.61 16.53 223.61 17.80L223.61 17.80Q223.61 19.07 223.02 20.02Q222.43 20.97 221.36 21.48Q220.29 22 218.91 22L218.91 22ZM217.32 15.50L217.32 20.10L218.82 20.10Q219.90 20.10 220.55 19.49Q221.20 18.88 221.20 17.80L221.20 17.80Q221.20 16.72 220.55 16.11Q219.90 15.50 218.82 15.50L218.82 15.50L217.32 15.50ZM227.50 23.25L227.50 22L233.50 22L233.50 23.25L227.50 23.25ZM237.39 17.80L237.39 17.80Q237.39 16.54 237.99 15.54Q238.59 14.55 239.64 13.99Q240.69 13.43 242.01 13.43L242.01 13.43Q243.16 13.43 244.09 13.84Q245.01 14.25 245.62 15.02L245.62 15.02L244.11 16.39Q243.30 15.40 242.13 15.40L242.13 15.40Q241.45 15.40 240.91 15.70Q240.38 16 240.08 16.54Q239.79 17.09 239.79 17.80L239.79 17.80Q239.79 18.51 240.08 19.05Q240.38 19.60 240.91 19.90Q241.45 20.20 242.13 20.20L242.13 20.20Q243.30 20.20 244.11 19.22L244.11 19.22L245.62 20.58Q245.02 21.35 244.09 21.76Q243.16 22.17 242.01 22.17L242.01 22.17Q240.69 22.17 239.64 21.61Q238.59 21.05 237.99 20.05Q237.39 19.06 237.39 17.80ZM249.73 17.80L249.73 17.80Q249.73 16.55 250.34 15.55Q250.94 14.56 252.00 14.00Q253.07 13.43 254.40 13.43L254.40 13.43Q255.73 13.43 256.79 14.00Q257.85 14.56 258.46 15.55Q259.07 16.55 259.07 17.80L259.07 17.80Q259.07 19.05 258.46 20.04Q257.85 21.04 256.79 21.60Q255.73 22.17 254.40 22.17L254.40 22.17Q253.07 22.17 252.00 21.60Q250.94 21.04 250.34 20.04Q249.73 19.05 249.73 17.80ZM252.13 17.80L252.13 17.80Q252.13 18.51 252.43 19.05Q252.73 19.60 253.25 19.90Q253.76 20.20 254.40 20.20L254.40 20.20Q255.03 20.20 255.55 19.90Q256.07 19.60 256.36 19.05Q256.66 18.51 256.66 17.80L256.66 17.80Q256.66 17.09 256.36 16.54Q256.07 16 255.55 15.70Q255.03 15.40 254.40 15.40L254.40 15.40Q253.76 15.40 253.24 15.70Q252.73 16 252.43 16.54Q252.13 17.09 252.13 17.80ZM265.99 22L263.79 22L263.79 13.60L265.75 13.60L268.70 18.45L271.59 13.60L273.54 13.60L273.56 22L271.38 22L271.36 17.55L269.20 21.17L268.14 21.17L265.99 17.67L265.99 22ZM281.10 22L278.72 22L278.72 13.60L282.57 13.60Q283.70 13.60 284.55 13.98Q285.39 14.35 285.84 15.06Q286.30 15.76 286.30 16.71L286.30 16.71Q286.30 17.66 285.84 18.35Q285.39 19.05 284.55 19.42Q283.70 19.80 282.57 19.80L282.57 19.80L281.10 19.80L281.10 22ZM281.10 15.47L281.10 17.93L282.42 17.93Q283.15 17.93 283.53 17.61Q283.90 17.29 283.90 16.71L283.90 16.71Q283.90 16.12 283.53 15.80Q283.15 15.47 282.42 15.47L282.42 15.47L281.10 15.47ZM292.47 22L290.04 22L293.75 13.60L296.10 13.60L299.81 22L297.35 22L296.68 20.37L293.13 20.37L292.47 22ZM294.91 15.93L293.82 18.61L295.99 18.61L294.91 15.93ZM306.30 22L303.97 22L303.97 13.60L305.92 13.60L309.63 18.07L309.63 13.60L311.96 13.60L311.96 22L310.01 22L306.30 17.52L306.30 22ZM319.50 22L317.12 22L317.12 13.60L319.50 13.60L319.50 22ZM324.25 17.80L324.25 17.80Q324.25 16.55 324.85 15.55Q325.45 14.56 326.52 14.00Q327.58 13.43 328.91 13.43L328.91 13.43Q330.24 13.43 331.30 14.00Q332.37 14.56 332.97 15.55Q333.58 16.55 333.58 17.80L333.58 17.80Q333.58 19.05 332.97 20.04Q332.37 21.04 331.31 21.60Q330.25 22.17 328.91 22.17L328.91 22.17Q327.58 22.17 326.52 21.60Q325.45 21.04 324.85 20.04Q324.25 19.05 324.25 17.80ZM326.64 17.80L326.64 17.80Q326.64 18.51 326.94 19.05Q327.25 19.60 327.76 19.90Q328.28 20.20 328.91 20.20L328.91 20.20Q329.55 20.20 330.06 19.90Q330.58 19.60 330.88 19.05Q331.18 18.51 331.18 17.80L331.18 17.80Q331.18 17.09 330.88 16.54Q330.58 16 330.06 15.70Q329.55 15.40 328.91 15.40L328.91 15.40Q328.27 15.40 327.76 15.70Q327.25 16 326.94 16.54Q326.64 17.09 326.64 17.80ZM340.64 22L338.31 22L338.31 13.60L340.27 13.60L343.97 18.07L343.97 13.60L346.30 13.60L346.30 22L344.35 22L340.64 17.52L340.64 22Z" fill="#FFFFFF" x="67.8"/></svg>